<svg xmlns="http://www.w3.org/2000/svg" viewBox="0 0 69.002594 61.544933" height="61.544933mm" width="69.002594mm">
    <path d="m 23208.186,4224.8628 c -164.206,39.4458 -89.093,162.6417 -64.742,180.499 18.561,14.0608 41.506,21.7076 65.14,21.7076 12.172,10e-5 24.251,-2.0293 35.701,-5.9979 38.196,-27.7162 77.922,-91.6894 51.91,-151.0876 -19.503,-28.1841 -52.389,-45.1206 -87.611,-45.1211 -0.133,-2e-4 -0.265,-2e-4 -0.398,0 z" color="#000" overflow="visible" fill="#fff" paint-order="fill markers stroke" transform="translate(41.138105,8.2075102) matrix(0.26458333,0,0,0.26458333,-6144.5142,-1123.8446)"/>
    <path transform="translate(41.138105,8.2075102) matrix(0.26458333,0,0,0.26458333,-6144.5142,-1123.8446) translate(-271.76436,29.55388)" d="m 23478.803,4187.0273 c -96.775,9.5208 -115.92,60.0634 -135.37,153.2665 -8.742,32.9151 -0.91,46.6783 8.811,57.3851 16.855,29.0931 92.117,31.3259 75.799,-5.7219 21.076,10.1969 46.166,13.2623 70.807,9.9082 7.33,-0.9978 15.87,-3.8923 22.855,-7.0175 11.396,14.559 67.493,31.12 71.118,8.1071 4.514,-35.4291 12.03,-96.2725 4.238,-134.4138 -13.937,-61.8799 -63.599,-80.9525 -118.258,-81.5137 z m -36.212,28.1805 c 12.105,-3.96 23.965,3.593 32.026,8.8059 25.365,16.403 61.072,28.3545 78.619,27.3203 20.228,-3.8315 23.757,18.7074 20.09,35.6523 -5.239,16.8646 -91.925,8.6864 -109.205,9.3399 -43.363,-3.9354 -39.405,-1.1368 -82.586,-7.9434 -1.686,-5.6444 8.268,-29.0904 17.309,-41.6035 9.198,2.0533 29.779,2.0784 43.747,-31.5715 z m 0.409,47.8801 c -8.248,-0.1758 -13.852,3.9271 -16.057,12.1094 -2.32,8.6096 4.903,10.2829 14.899,3.4511 5.07,-3.4632 9.851,-4.0772 13.121,-1.6816 10.557,7.7378 19.338,10.338 20.232,7.0239 3.79,-7.557 -11.588,-23.8959 -32.195,-20.9028 z m 59.521,2.9512 c -8.773,2.0371 -13.566,13.0532 -7.585,17.4316 2.095,1.5336 7.133,0.5664 11.195,-2.1504 8.022,-5.3621 17.095,-4.4859 18.984,1.834 2.18,7.2946 8.046,5.9145 9.033,-2.125 0.78,-6.3627 -1.479,-8.831 -11.351,-12.3906 -6.709,-1.6117 -13.694,-4.0819 -20.276,-2.5996 z m -115.894,38.6035 c 1.207,-0.036 2.686,0.053 4.486,0.1992 7.242,0.5845 7.983,2.4316 12.969,32.3301 1.838,11.0282 2.383,19.7927 1.209,19.4765 -5.538,-1.4923 -21.284,-28.5565 -22.633,-38.8945 -1.36,-10.4574 -1.262,-12.957 3.969,-13.1113 z m 40.578,2.5566 h 0.01 c 5.119,-0.026 11.914,0.4549 20.89,1.1446 18.183,1.3977 45.206,2.7455 60.053,2.996 14.85,0.2508 28.04,1.5622 29.311,2.9161 3.216,3.424 -1.443,19.2594 -5.354,18.205 -11.106,-2.9928 -109.356,-10.2339 -112.707,-8.3066 -2.594,1.4944 -1.664,3.0068 2.53,4.1367 6.624,1.7712 88.864,7.842 104.439,7.709 7.362,-0.063 7.9,1.1322 5.088,11.3652 -1.725,6.2896 -4.934,13.0848 -7.133,15.1016 -2.198,2.0169 -18.179,3.7404 -35.508,3.832 -41.01,0.2149 -69.12,-3.66 -70.949,-9.7832 -0.752,-2.5432 -0.751,-4.8443 0.03,-5.1074 0.773,-0.263 20.165,-0.039 43.092,0.498 36.878,0.8641 67.495,-1.6291 57.641,-4.6933 -1.935,-0.6018 -18.979,-1.3173 -37.873,-1.5899 -18.896,-0.2731 -41.716,-1.4268 -50.713,-2.5625 -15.978,-2.0174 -16.378,-2.3398 -17.217,-13.9453 -1.243,-17.1987 -0.985,-21.8358 14.369,-21.916 z m 135.793,1.5156 c 6.76,0.056 7.245,3.2461 4.281,14.0723 -1.913,7.0081 -9.227,19.3988 -16.252,27.5371 l -12.771,14.7988 7.193,-27.7656 c 5.789,-22.3409 8.356,-27.8845 13.133,-28.3789 1.699,-0.1761 3.165,-0.274 4.416,-0.2637 z m -44.877,66.5293 c 4.121,4.2213 -23.701,15.9537 -38.092,16.0645 -27.892,-1.5941 -45.156,-8.7347 -51.093,-16.0274 34.665,6.3999 89.185,-0.037 89.185,-0.037 z" fill="#030303"/>
</svg>
