<svg xmlns="http://www.w3.org/2000/svg" width="65.707947mm" height="67.902634mm" viewBox="0 0 65.707947 67.902634"><path fill="#fff" d="m 92.817179,28.246971 c 10e-7,16.060049 -12.397896,29.079291 -27.691477,29.079291 -15.293581,0 -27.691478,-13.019242 -27.691477,-29.079291 0,-16.060048 12.397896,-29.07929026 27.691477,-29.07929026 C 86.501425,-3.1022592 97.157905,26.626952 92.817179,28.246971 Z" color="#000" overflow="visible" paint-order="fill markers stroke" transform="translate(-35.504707,8.0679261)"/><path fill="#030303" d="M 37.292229,41.230493 C 34.951725,36.643862 35.223187,28.660192 36.327293,22.178535 37.087441,17.715147 40.228574,11.465451 41.995991,9.4442456 L 39.04086,7.3554925 C 37.467912,6.0694852 37.155175,5.2571615 37.928552,4.468465 c 0.779991,-0.7952052 1.767681,-0.5531643 3.589602,0.8796867 3.43826,2.7040946 5.325004,0.9664435 3.26972,-3.0093443 -2.029089,-3.9225273 -0.0799,-4.6607941 3.198548,-1.2117123 1.820598,1.9162977 2.450836,2.2196954 1.994959,0.9614429 -1.924844,-5.3239458 -1.903677,-6.6427878 0.108743,-6.6427878 1.397794,0 2.153709,0.8733895 2.573602,2.9732816 0.439738,2.19979871 1.00965,2.8143464 2.187311,2.3621735 1.129241,-0.43312291 1.2827,-0.92151728 0.528637,-1.67610894 -1.208087,-1.20795516 -1.458912,-5.66314156 -0.316971,-5.63967306 1.329267,0.026829 2.873375,1.4374548 3.53404,3.2276785 0.787929,2.1370396 2.655887,2.3019544 2.827602,0.2493169 0.355865,-4.2772806 0.239977,-4.16941 3.910277,-3.642016 0.572558,0.082365 0.909108,0.8888677 0.748242,1.7923404 -0.548746,3.0738233 1.932781,2.4417866 2.551112,-0.6496844 0.55245,-2.7605566 0.829998,-2.9615077 2.704836,-1.9581018 1.231635,0.65913 1.859756,1.7167224 1.52982,2.5762478 -0.828675,2.1586031 2.198688,2.8722108 4.262438,1.0044377 0.982662,-0.8896879 2.537883,-1.6177418 3.455194,-1.6177418 1.819539,0 2.284941,2.4942535 0.65352,3.5025012 -1.786995,1.10450311 0.151342,2.66713225 2.55905,2.06287685 2.748227,-0.69016562 4.101571,0.9220729 2.446073,2.91629035 -1.883304,2.2695958 -0.201877,3.7472408 2.28309,2.0063619 C 90.741236,3.3862663 94.22818,2.8883205 94.22818,4.1221519 94.976386,5.1399682 93.799391,6.0311834 92.316402,7.578943 91.15617,8.533962 87.943951,10.62232 88.835707,10.444 l 3.074459,-0.6147856 c 3.955298,-0.7909229 5.004593,0.8999806 1.842558,2.9716416 -1.472142,0.964247 -2.228586,2.194851 -1.890977,3.074035 0.478896,1.248171 1.123156,1.179882 4.334404,-0.458206 3.580341,-1.826736 5.016499,-1.769163 5.016499,0.200951 0,0.484214 -1.757097,1.667087 -3.905249,2.628794 l -3.553837,2.031564 c 0.908857,2.383158 0.78647,4.40414 1.171793,6.603431 2.422261,-0.716598 3.069167,5.090795 0.0053,5.573024 C 91.030955,47.996762 81.921616,54.358986 76.057391,57.392513 61.609818,63.527512 43.146929,58.090642 37.292229,41.230493 Z m 25.919906,14.688952 c -1.018646,-0.965755 -7.900194,-2.35114 -7.900194,-1.590013 0,0.83013 2.589477,1.57771 6.403446,1.848776 1.051454,0.07493 1.724818,-0.04202 1.496748,-0.258763 z m 12.057062,-4.594727 c 0,-0.591688 -3.678237,-0.997718 -9.039754,-0.997718 -5.772415,0 -8.81671,0.36076 -8.42301,0.997718 0.339989,0.548984 4.407429,0.997955 9.039754,0.997955 4.949825,0 8.42301,-0.411268 8.42301,-0.997955 z m 1.346465,-4.458203 C 77.405178,44.809723 76.914641,44.670658 66.288445,43.9398 61.07483,43.581263 54.339068,43.015584 51.320966,42.682923 l -5.488517,-0.604917 1.996017,2.246657 c 3.028685,3.409738 5.046927,3.874929 17.105842,3.943403 8.897408,0.05101 11.231297,-0.2295 11.681354,-1.401551 z M 87.840345,39.13457 c 2.975768,-5.844619 3.004079,-7.370921 0.151606,-8.135355 -5.13715,-1.376654 -5.482696,-1.025631 -6.019006,6.106345 -0.278342,3.704484 -0.84455,7.858125 -1.258359,9.230068 l -0.752475,2.494757 2.741348,-2.494757 c 1.508125,-1.371943 3.81979,-4.612534 5.136886,-7.201058 z M 42.516427,34.862819 c -0.23495,-6.182704 -0.678921,-8.483944 -1.63539,-8.483944 -2.152385,0 -2.675996,6.138413 -1.003829,11.769725 0.848254,2.856548 1.861344,5.194512 2.251869,5.195861 0.390789,0 0.56462,-3.815318 0.38735,-8.481642 z m 36.303214,7.387934 c 0.370416,-0.60034 0.708025,-3.32695 0.749035,-6.059196 0.0889,-5.880444 -0.902758,-6.782462 -7.477919,-6.803893 -6.008422,-0.336577 -12.422452,-1.398349 -17.731845,-1.879732 -6.878902,-0.606425 -7.834313,-1.076087 -8.346546,0.261196 -0.871537,2.269702 2.059781,3.493135 11.02016,4.598776 12.937596,1.596258 21.230167,3.25919 21.230167,4.257331 0,0.531548 -1.189831,0.647541 -2.71489,0.264689 -3.264429,-0.819176 -24.706527,-3.526208 -27.931268,-3.526208 -1.863725,0 -2.282561,0.54155 -2.282561,2.948252 0,2.616306 0.421482,3.027839 3.742002,3.654214 3.078957,0.581025 20.92325,2.688113 27.381465,3.233446 0.928158,0.07837 1.990989,-0.348562 2.3622,-0.948875 z M 90.011516,22.636847 C 89.303755,15.639041 83.987218,7.6639967 78.445255,5.2886734 67.029014,0.74897905 56.253064,0.98212988 46.648424,10.532847 c -2.514864,2.742248 -6.437841,11.388117 -5.563922,12.261929 0.325172,0.324829 2.648743,0.619073 5.163872,0.653733 2.515394,0.03455 11.08419,0.874501 19.041798,1.865736 7.958137,0.991261 16.883592,1.860894 19.834489,1.932331 l 5.366015,0.130122 z M 72.275701,19.898674 c 0,-1.100852 -0.571764,-1.458992 -1.746779,-1.093576 -0.959908,0.298847 -2.39051,0.138747 -3.17844,-0.355706 -2.148416,-1.348475 0.469371,-4.044712 3.926682,-4.044712 3.161241,0 5.310187,2.090658 4.811448,4.680347 -0.446617,2.316242 -3.812911,3.03485 -3.812911,0.813647 z M 50.40736,17.001275 c -0.916781,-1.104794 -0.60325,-1.830811 1.509448,-3.492368 1.466585,-1.153742 3.434556,-2.09767 4.373562,-2.09767 1.86399,0 5.008827,2.988046 5.008827,4.759511 0,2.083382 -2.295525,2.53402 -3.628231,0.711993 -1.243806,-1.701641 -1.447271,-1.711457 -3.169973,-0.152347 -2.236258,2.023851 -2.617787,2.049198 -4.093633,0.270881 z" transform="translate(-35.504707,8.0679261)"/></svg>